:SAMPLES-PER-SECOND 30
:FULLY-SPECIFIED
:DEGREES
144
root  -0.733558 37.9952 13.9158 -176.123 40.9356 -178.36
RightUpLeg  -30.0763 28.6132 -11.2615
RightLeg  27.0372 12.8942 6.85202
RightFoot  -6.50658 -0.415897 8.78653
RightToes  -1.33073e-015 0 -3.6325e-017
Spine  31.1429 -12.8525 -33.5194
Spine1  -5.29364 -23.7233 15.7257
HEad  -2.1296 59.4496 -11.51
LeftShoulder1  2.77735 -12.0458 -10.6088
LeftArm  109.71 -52.8552 -178.733
LeftForeArm  69.4872 4.19347 -12.0545
LeftHand  -0.246645 0.021 5.37786
RightShoulder  5.542 12.7977 27.9874
RightArm  -58.8155 37.027 29.8642
RightForeArm  148.867 78.5606 127.643
RightHand  -0.24729 -0.0210522 -5.37781
LeftUpLeg  -8.66211 36.9848 14.7186
LeftLeg  33.9881 8.49246 6.48635
LeftFoot  -15.3011 -0.40089 -14.1782
LeftToes  5.09284e-011 3.02203e-011 3.83118e-011
145
root  -1.33045 38.0017 14.121 -175.813 32.2853 -178
RightUpLeg  -28.2304 23.6256 -11.5263
RightLeg  25.9671 9.98854 5.04874
RightFoot  -6.91992 -0.439862 10.1475
RightToes  -1.33073e-015 0 -3.6325e-017
Spine  32.255 -13.1826 -29.277
Spine1  -2.57333 -23.786 15.1825
HEad  -4.21224 56.7365 -14.02
LeftShoulder1  3.02538 -12.6015 -11.6247
LeftArm  102.225 -54.8347 -173.245
LeftForeArm  72.3355 6.36731 -10.7782
LeftHand  -0.246645 0.021 5.37786
RightShoulder  6.26014 13.8701 30.0653
RightArm  -55.5794 34.9204 32.476
RightForeArm  138.617 79.3607 120.136
RightHand  -0.24729 -0.0210522 -5.37781
LeftUpLeg  -14.034 30.6614 12.2342
LeftLeg  35.4341 7.0571 5.74499
LeftFoot  -15.1653 -0.30874 -11.9122
LeftToes  5.09284e-011 3.02203e-011 3.83118e-011
146
root  -1.93284 38.0429 14.3488 -175.679 21.9953 -178.176
RightUpLeg  -25.7506 17.3178 -12.2184
RightLeg  24.9393 6.80713 3.22919
RightFoot  -7.36909 -0.452436 11.5593
RightToes  -1.33073e-015 0 -3.6325e-017
Spine  32.5426 -13.5393 -24.1523
Spine1  0.313148 -23.5742 15.688
HEad  -5.57872 51.4829 -16.2504
LeftShoulder1  3.629 -13.441 -14.5037
LeftArm  93.4989 -57.0602 -164.941
LeftForeArm  74.3499 6.26908 -10.3869
LeftHand  -0.246645 0.021 5.37786
RightShoulder  6.80969 14.7098 31.4217
RightArm  -51.8913 32.2887 35.4946
RightForeArm  124.694 80.1671 108.381
RightHand  -0.24729 -0.0210522 -5.37781
LeftUpLeg  -18.9231 23.2712 9.58607
LeftLeg  35.8632 5.26052 4.45149
LeftFoot  -14.3049 -0.163893 -9.59064
LeftToes  5.09284e-011 3.02203e-011 3.83118e-011
147
root  -2.42578 38.1201 14.5531 -175.763 10.9659 -179.082
RightUpLeg  -22.6506 10.8279 -13.5928
RightLeg  24.2588 3.2263 1.36938
RightFoot  -7.88991 -0.443759 12.892
RightToes  -1.33073e-015 0 -3.6325e-017
Spine  30.6722 -13.5303 -18.1317
Spine1  3.87516 -22.5152 16.175
HEad  -5.31885 42.4017 -17.4152
LeftShoulder1  4.49218 -14.3612 -18.5786
LeftArm  81.6196 -58.458 -153.035
LeftForeArm  75.5594 6.19203 -10.3458
LeftHand  -0.246645 0.021 5.37786
RightShoulder  7.45165 15.5677 33.0954
RightArm  -48.6728 29.3158 39.0061
RightForeArm  98.617 80.448 85.772
RightHand  -0.24729 -0.0210522 -5.37781
LeftUpLeg  -22.3922 16.7526 6.84729
LeftLeg  34.9434 2.09315 1.95289
LeftFoot  -12.5718 -0.0046294 -7.30708
LeftToes  5.09284e-011 3.02203e-011 3.83118e-011
148
root  -2.73281 38.2404 14.6678 -175.928 -1.05669 179.511
RightUpLeg  -18.3025 4.0741 -15.3066
RightLeg  23.6621 -0.891376 -0.64324
RightFoot  -8.52895 -0.405951 14.1075
RightToes  -1.33073e-015 0 -3.6325e-017
Spine  25.814 -13.1649 -11.2091
Spine1  8.74626 -20.7488 15.6485
HEad  -3.34889 29.8189 -16.8391
LeftShoulder1  5.04424 -14.9244 -20.9676
LeftArm  65.8745 -58.3851 -139.453
LeftForeArm  77.0051 5.89726 -8.85476
LeftHand  -0.246645 0.021 5.37786
RightShoulder  8.08515 16.2644 34.9108
RightArm  -46.5745 25.4405 42.662
RightForeArm  64.6464 78.5882 58.969
RightHand  -0.24729 -0.0210522 -5.37781
LeftUpLeg  -24.1662 11.9785 3.99267
LeftLeg  32.7902 -3.5935 -2.10673
LeftFoot  -9.96946 0.121623 -5.25423
LeftToes  5.09284e-011 3.02203e-011 3.83118e-011
149
root  -2.88482 38.4014 14.6728 -176.421 -14.9391 178.093
RightUpLeg  -11.6235 -3.90079 -16.9496
RightLeg  22.5237 -5.31489 -2.62339
RightFoot  -9.00315 -0.379895 15.5145
RightToes  -1.33073e-015 0 -3.6325e-017
Spine  18.8815 -12.5687 -3.42421
Spine1  13.6178 -18.8394 14.5449
HEad  0.226855 14.788 -14.3581
LeftShoulder1  5.25753 -15.2302 -21.6926
LeftArm  50.1306 -57.0775 -126.8
LeftForeArm  75.6974 5.60878 -6.70704
LeftHand  -0.246645 0.021 5.37786
RightShoulder  8.2768 16.5353 35.2996
RightArm  -44.8467 20.1622 45.7629
RightForeArm  36.6993 74.2611 39.7003
RightHand  -0.24729 -0.0210522 -5.37781
LeftUpLeg  -23.9862 8.14188 1.27383
LeftLeg  30.0253 -11.9527 -7.0194
LeftFoot  -6.72335 0.201593 -3.95911
LeftToes  5.09284e-011 3.02203e-011 3.83118e-011
150
root  -2.92501 38.5637 14.6019 -177.668 -29.4318 176.88
RightUpLeg  -3.12545 -11.4381 -18.7172
RightLeg  21.3249 -9.95072 -4.46313
RightFoot  -8.7236 -0.461928 17.4033
RightToes  -1.33073e-015 0 -3.6325e-017
Spine  11.5288 -11.8039 4.42531
Spine1  17.0605 -16.9362 12.3918
HEad  4.76494 -0.929149 -10.847
LeftShoulder1  5.66347 -15.7857 -23.0524
LeftArm  35.368 -55.4291 -113.637
LeftForeArm  69.5362 5.58489 -5.01614
LeftHand  -0.246645 0.021 5.37786
RightShoulder  8.23224 16.6381 34.8723
RightArm  -40.9997 17.6175 47.582
RightForeArm  14.2427 63.0406 22.5162
RightHand  -0.24729 -0.0210522 -5.37781
LeftUpLeg  -21.6607 4.84048 -1.03933
LeftLeg  27.4895 -21.3651 -11.3379
LeftFoot  -3.57985 0.287531 -3.8863
LeftToes  5.09284e-011 3.02203e-011 3.83118e-011
